<svg height="470pt" viewBox="0 -71 470 469" width="470pt" xmlns="http://www.w3.org/2000/svg"><path d="m235 212.363281c43.554688 0 78.863281-35.308593 78.863281-78.863281s-35.308593-78.863281-78.863281-78.863281-78.863281 35.308593-78.863281 78.863281c.046875 43.535156 35.328125 78.816406 78.863281 78.863281zm0-141.726562c34.71875 0 62.863281 28.144531 62.863281 62.863281s-28.144531 62.863281-62.863281 62.863281-62.863281-28.144531-62.863281-62.863281c.039062-34.703125 28.160156-62.824219 62.863281-62.863281zm0 0"/><path d="m462 .5h-454c-4.421875.007812-8 3.59375-8 8.015625v309.96875c0 4.421875 3.578125 8.007813 8 8.015625h454c4.421875-.007812 8-3.59375 8-8.015625v-309.96875c0-4.421875-3.578125-8.007813-8-8.015625zm-446 266h438v14h-438zm0-250h438v234h-438zm0 294v-14h438v14zm0 0"/><path d="m101 172.230469c21.390625 0 38.730469-17.339844 38.730469-38.730469s-17.339844-38.730469-38.730469-38.730469-38.730469 17.339844-38.730469 38.730469c.027344 21.378906 17.351563 38.703125 38.730469 38.730469zm0-61.460938c12.554688 0 22.730469 10.175781 22.730469 22.730469s-10.175781 22.730469-22.730469 22.730469-22.730469-10.175781-22.730469-22.730469c.015625-12.546875 10.183594-22.714844 22.730469-22.730469zm0 0"/><path d="m369 172.230469c21.390625 0 38.730469-17.339844 38.730469-38.730469s-17.339844-38.730469-38.730469-38.730469-38.730469 17.339844-38.730469 38.730469c.027344 21.378906 17.351563 38.703125 38.730469 38.730469zm0-61.460938c12.554688 0 22.730469 10.175781 22.730469 22.730469s-10.175781 22.730469-22.730469 22.730469-22.730469-10.175781-22.730469-22.730469c.015625-12.546875 10.183594-22.714844 22.730469-22.730469zm0 0"/><path d="m58.527344 235.199219c1.503906 2.074219 3.910156 3.300781 6.472656 3.300781h344.332031c2.5625 0 4.96875-1.226562 6.472657-3.300781l25.667968-35.332031c.992188-1.367188 1.527344-3.011719 1.527344-4.703126v-121.664062c0-1.6875-.535156-3.332031-1.527344-4.699219l-25.667968-35.167969c-1.523438-2.027343-3.933594-3.195312-6.472657-3.132812h-344.332031c-2.539062-.0625-4.949219 1.101562-6.472656 3.132812l-25.832032 35.25c-1.042968 1.320313-1.636718 2.9375-1.695312 4.617188v121.667969c.058594 1.703125.652344 3.347656 1.695312 4.699219zm-11.527344-159.097657 22.078125-29.601562h336.179687l21.742188 29.601562v116.464844l-21.742188 29.933594h-336.179687l-22.078125-29.933594zm0 0"/><path d="m235 162.699219c-5.976562-.003907-10.816406-4.847657-10.824219-10.820313 0-4.421875-3.582031-8-8-8s-8 3.578125-8 8c.015625 11.339844 7.144531 21.449219 17.824219 25.265625v4.355469c0 4.417969 3.582031 8 8 8s8-3.582031 8-8v-3.730469c12.984375-3.507812 21.359375-16.089843 19.589844-29.421875-1.769532-13.332031-13.140625-23.292968-26.589844-23.289062-5.734375 0-10.476562-4.472656-10.808594-10.199219-.328125-5.726563 3.867188-10.714844 9.566406-11.371094.082032 0 .160157.011719.242188.011719.367188-.003906.734375-.03125 1.101562-.085938 5.933594.0625 10.714844 4.886719 10.722657 10.820313 0 4.417969 3.582031 8 8 8s8-3.582031 8-8c-.015625-12.113281-8.136719-22.714844-19.824219-25.890625v-2.84375c0-4.417969-3.582031-8-8-8s-8 3.582031-8 8v3.46875c-12.296875 4.378906-19.65625 16.972656-17.433594 29.832031 2.222656 12.863281 13.382813 22.257813 26.433594 22.257813 5.976562 0 10.824219 4.84375 10.824219 10.820312 0 5.976563-4.847657 10.824219-10.824219 10.824219zm0 0"/></svg>