<svg height="438pt" viewBox="0 -6 438 438" width="438pt" xmlns="http://www.w3.org/2000/svg"><path d="m310.167969 17.113281c-1.398438 1.367188-3.277344 2.132813-5.234375 2.136719-1.886719.011719-3.699219-.746094-5.019532-2.09375l-16.613281-17.042969-16.601562 17.300781c-1.289063 1.441407-3.09375 2.316407-5.027344 2.433594-1.929687-.121094-3.734375-.996094-5.023437-2.441406l-16.582032-17.3710938-16.816406 17.0781248c-1.398438 1.378907-3.289062 2.140625-5.25 2.117188-1.789062-.175781-3.472656-.921875-4.800781-2.128907l-16.472657-17.101562-16.527343 17.09375c-1.308594 1.359375-3.117188 2.125-5.003907 2.125-1.886718 0-3.695312-.765625-5.003906-2.125l-16.589844-17.09375-16.589843 17.40625c-1.296875 1.445312-3.109375 2.324219-5.046875 2.441406h-.054688c-1.964844-.117187-3.804687-.992187-5.132812-2.441406l-9.777344-10.183594v232.625h203v-232.652344zm-91.167969 79.304688c-13.910156 0-25.769531-10.085938-28.003906-23.8125-2.238282-13.730469 5.8125-27.054688 19.003906-31.46875v-5.441407c0-3.867187 3.132812-7 7-7s7 3.132813 7 7v4.421876c13.519531 2.4375 23.359375 14.191406 23.375 27.929687 0 3.867187-3.132812 7-7 7-3.863281 0-7-3.132813-7-7 .003906-7.941406-6.429688-14.378906-14.371094-14.382813-7.941406 0-14.378906 6.4375-14.378906 14.375 0 7.941407 6.433594 14.378907 14.375 14.378907 14.691406.003906 26.949219 11.226562 28.25 25.863281s-8.789062 27.84375-23.25 30.4375v5.972656c0 3.867188-3.132812 7-7 7s-7-3.132812-7-7v-7c-11.5625-3.878906-19.355469-14.703125-19.375-26.898437 0-3.867188 3.132812-7 7-7 3.863281 0 7 3.132812 7 7 0 7.941406 6.433594 14.375 14.375 14.378906 7.9375 0 14.375-6.4375 14.375-14.378906 0-7.9375-6.433594-14.375-14.375-14.375zm-37 72.429687h73c3.867188 0 7 3.132813 7 7 0 3.867188-3.132812 7-7 7h-72.988281c-3.867188 0-7-3.132812-7-7 0-3.867187 3.132812-7 7-7zm107.746094 47h-142.5c-3.863282 0-7-3.132812-7-7 0-3.867187 3.136718-7 7-7h142.507812c3.863282 0 7 3.132813 7 7 0 3.867188-3.136718 7-7 7zm0 0"/><path d="m0 333.636719c0 6.394531 5.46875 12.210937 11.863281 12.210937h414.273438c6.394531 0 11.863281-5.816406 11.863281-12.210937v-35.789063h-438zm0 0"/><path d="m426.136719 43.847656h-92.136719v196h32.574219c3.867187 0 7 3.132813 7 7 0 3.867188-3.132813 7-7 7h-296.148438c-3.867187 0-7-3.132812-7-7 0-3.867187 3.132813-7 7-7h32.574219v-196h-91.136719c-6.503906.109375-11.753906 5.355469-11.863281 11.863282v228.136718h438v-228.136718c-.109375-6.507813-5.359375-11.753907-11.863281-11.863282zm0 0"/><path d="m332.84375 411.847656h-44.429688l-14.375-52h-111.078124l-14.375 52h-44.429688c-3.867188 0-7 3.132813-7 7 0 3.867188 3.132812 7 7 7h228.6875c3.867188 0 7-3.132812 7-7 0-3.867187-3.132812-7-7-7zm0 0"/></svg>