<svg height="487pt" viewBox="0 0 487 487.99674" width="487pt" xmlns="http://www.w3.org/2000/svg"><path d="m419.351562 379.046875c-3.125-3.125-8.1875-3.125-11.3125 0l-8.539062 8.539063-9.871094-9.867188c34.191406-39.363281 36.5-97.175781 5.5625-139.140625 2.859375-12.820313 4.324219-25.914063 4.367188-39.046875 0-47.542969-19.558594-96.515625-53.660156-134.359375-37.867188-42.027344-89.671876-65.171875-145.871094-65.171875-34.886719 0-69.914063 10.015625-101.292969 28.96875-20.074219 12.175781-38.09375 27.445312-53.402344 45.246094l1.53125-36.699219-15.984375-.664063-2.480468 59.449219c-.09375 2.238281.757812 4.414063 2.34375 5.996094 1.585937 1.582031 3.765624 2.429687 6.003906 2.328125l55.742187-2.476562-.714843-15.984376-36.960938 1.644532c14.734375-17.875 32.378906-33.136719 52.191406-45.144532 28.882813-17.445312 61.050782-26.664062 93.023438-26.664062 51.609375 0 99.191406 21.265625 133.988281 59.882812 31.023437 34.429688 49.542969 80.652344 49.542969 123.648438-.015625 7.992188-.621094 15.976562-1.816406 23.878906-13.378907-12.613281-29.664063-21.730468-47.414063-26.542968-3.019531-71.46875-62.101563-128.6875-134.300781-128.6875-74.125 0-134.429688 60.300781-134.429688 134.429687 0 73.539063 59.359375 133.464844 132.679688 134.40625 5.0625 16.644531 13.945312 31.875 25.9375 44.476563-8.019532 1.042968-16.097656 1.566406-24.1875 1.566406-51.546875 0-99.128906-21.109375-133.980469-59.871094-31.027344-34.507812-49.546875-81.1875-49.546875-123.1875h-16c0 46 20.054688 96.523438 53.652344 133.886719 37.925781 42.179687 89.730468 65.292969 145.875 65.292969 13.351562-.011719 26.671875-1.351563 39.757812-4 41.996094 30.378906 99.382813 27.839843 138.527344-6.132813l9.871094 9.859375-8.660156 8.660156c-3.125 3.125-3.125 8.1875 0 11.3125l60.886718 60.886719c.253906.253906.5.484375.757813.710937l.152343.136719c.101563.097657.207032.199219.316407.296875 11.390625 10.097656 28.738281 9.3125 39.175781-1.765625 10.433594-11.078125 10.179688-28.445312-.578125-39.210937zm-337.476562-168.046875h38.175781c.535157 15.3125 3.039063 30.492188 7.449219 45.164062-7.984375 5.148438-15.398438 11.128907-22.125 17.835938-13.714844-18.3125-21.871094-40.179688-23.5-63zm23.5-79.292969c6.726562 6.707031 14.144531 12.683594 22.128906 17.828125-4.414062 14.777344-6.917968 30.054688-7.453125 45.464844h-38.175781c1.453125-22.945312 9.625-44.957031 23.5-63.292969zm103.125 38.53125c17.320312-.949219 34.289062-5.25 49.972656-12.664062 3.320313 12.210937 5.175782 24.777343 5.527344 37.425781h-55.5zm0-16.039062v-66.335938c20 12.03125 35.460938 30.820313 45.007812 54.246094-14.078124 6.914063-29.363281 11.019531-45.007812 12.089844zm-16-66.335938v66.296875c-15.652344-1.007812-30.941406-5.148437-44.957031-12.183594 9.546875-23.363281 23.957031-42.105468 44.957031-54.113281zm0 82.335938v24.800781h-56.4375c.5-12.714844 2.527344-25.324219 6.027344-37.558594 15.800781 7.53125 32.929687 11.867188 50.410156 12.757813zm-56.4375 40.800781h56.4375v24.019531c-17.507812 1.011719-34.640625 5.476563-50.414062 13.136719-3.421876-12.117188-5.441407-24.582031-6.023438-37.15625zm56.4375 40.058594v66.304687c-21-12.011719-35.410156-30.753906-44.960938-54.121093 14.019532-7.027344 29.308594-11.171876 44.960938-12.183594zm25.042969-15.035156c-3.085938-.382813-6.042969-.839844-9.042969-1.007813v-24.015625h36.5625c-10.605469 6-19.765625 15.148438-27.519531 25.023438zm68.816406-41.023438h-6.351563c-.535156-15.398438-3.027343-30.667969-7.417968-45.4375 7.988281-5.167969 15.40625-11.175781 22.117187-17.917969 13.617188 18.039063 21.75 39.625 23.421875 62.167969-4.292968-.441406-8.609375-.636719-12.921875-.582031-6.320312.082031-12.625.671875-18.847656 1.769531zm-2.144531-75.601562c-5.265625 5.375-11.039063 10.226562-17.242188 14.488281-6.84375-16.429688-16.949218-31.300781-29.707031-43.707031 17.734375 5.90625 33.820313 15.917968 46.949219 29.21875zm-121.421875-29.21875c-12.730469 12.378906-22.820313 27.210937-29.660157 43.601562-6.203124-4.242188-11.984374-9.0625-17.265624-14.402344 13.125-13.289062 29.203124-23.292968 46.925781-29.195312zm-46.925781 195.664062c5.28125-5.339844 11.0625-10.160156 17.261718-14.402344 6.839844 16.386719 16.925782 31.214844 29.652344 43.59375-17.71875-5.902344-33.792969-15.90625-46.914062-29.191406zm189.339843 114.476562c-52.820312-.03125-95.617187-42.875-95.59375-95.695312.023438-52.820312 42.855469-95.625 95.675781-95.613281 52.820313.011719 95.632813 42.835937 95.632813 95.65625-.074219 52.820312-42.894531 95.613281-95.714844 95.652343zm163.644531 68.195313c-4.5 4.398437-11.609374 4.652344-16.414062.585937-.191406-.179687-.378906-.351562-.566406-.523437l-55.371094-55.359375 17.199219-17.203125 55.179687 55.183594c2.328125 2.28125 3.636719 5.402343 3.632813 8.664062-.003907 3.257813-1.324219 6.378907-3.660157 8.652344zm0 0"/><path d="m305.207031 219.8125c-46.855469.035156-84.816406 38.039062-84.792969 84.894531.023438 46.855469 38.019532 84.824219 84.875 84.8125 46.855469-.011719 84.832032-37.996093 84.832032-84.851562-.070313-46.859375-38.054688-84.820313-84.914063-84.855469zm8.375 16.527344c-4.003906 13.480468-10.390625 26.136718-18.851562 37.371094-6.738281-6.726563-14.175781-12.714844-22.183594-17.863282 1.335937-4.402344 2.492187-8.921875 3.488281-13.542968 9.128906-4.28125 19.089844-6.5 29.171875-6.492188 2.800781.007812 5.597657.183594 8.375.527344zm-29.332031 49.511718c-13.160156 13.339844-29.296875 23.363282-47.085938 29.25 12.785157-12.429687 22.90625-27.328124 29.75-43.789062 6.230469 4.277344 12.035157 9.144531 17.335938 14.539062zm-33.195312-23.695312c.648437.3125 1.296874.628906 1.941406.953125-3.878906 9.652344-8.976563 18.765625-15.167969 27.125 2.203125-10.246094 6.726563-19.851563 13.226563-28.078125zm-9.691407 68.394531c42.4375-13.742187 75.3125-47.617187 87.785157-90.445312 16.234374 6.054687 29.613281 17.980469 37.488281 33.414062-18.96875 41.28125-51.949219 74.980469-91.238281 93.21875-15.429688-7.441406-27.554688-20.332031-34.035157-36.1875zm63.84375 42.96875c-2.507812 0-5.015625-.140625-7.507812-.414062 31.078125-18.132813 57.554687-45.308594 75.769531-77.78125 2.738281 19.722656-3.210938 39.660156-16.304688 54.660156s-32.046874 23.585937-51.957031 23.539063zm0 0"/></svg>