<svg height="484pt" viewBox="-40 0 484 484" width="484pt" xmlns="http://www.w3.org/2000/svg"><path d="m364.347656 0h-207.710937c-21.589844 0-39.636719 17.890625-39.636719 39.480469v106.519531h-84.507812c-17.644532 0-32.492188 14.5625-32.492188 32.207031v127.585938c0 17.644531 14.847656 32.207031 32.492188 32.207031h84.507812v106.519531c0 21.589844 18.046875 39.480469 39.636719 39.480469h207.710937c21.59375 0 39.652344-17.890625 39.652344-39.480469v-405.039062c0-21.589844-18.058594-39.480469-39.652344-39.480469zm-207.710937 16h207.710937c12.769532 0 23.652344 10.714844 23.652344 23.480469v38.519531h-255v-38.519531c0-12.765625 10.867188-23.480469 23.636719-23.480469zm-124.144531 146h217.507812v25h-234v-8.792969c0-8.820312 7.671875-16.207031 16.492188-16.207031zm-16.492188 41h234v21h-234zm0 102.792969v-65.792969h234v82h-217.507812c-8.820313 0-16.492188-7.386719-16.492188-16.207031zm234 32.207031v1.792969c0 4.417969 3.582031 8 8 8s8-3.582031 8-8v-195.585938c0-4.417969-3.582031-8-8-8s-8 3.582031-8 8v1.792969h-117v-52h255v280h-255v-36zm114.347656 130h-207.710937c-12.769531 0-23.636719-10.714844-23.636719-23.480469v-54.519531h255v54.519531c0 12.765625-10.882812 23.480469-23.652344 23.480469zm0 0"/><path d="m226.742188 53h67.503906c4.417968 0 8-3.582031 8-8s-3.582032-8-8-8h-67.503906c-4.417969 0-8 3.582031-8 8s3.582031 8 8 8zm0 0"/><path d="m260.492188 400.167969c-15.886719 0-28.769532 12.882812-28.769532 28.773437 0 15.886719 12.882813 28.769532 28.769532 28.769532 15.890624 0 28.773437-12.882813 28.773437-28.769532-.015625-15.882812-12.886719-28.757812-28.773437-28.773437zm0 41.542969c-7.050782 0-12.769532-5.71875-12.769532-12.769532 0-7.054687 5.71875-12.773437 12.769532-12.773437 7.054687 0 12.773437 5.71875 12.773437 12.773437-.007813 7.046875-5.722656 12.761719-12.773437 12.769532zm0 0"/><path d="m73.160156 262c-4.40625-.003906-8.726562 1.195312-12.5 3.464844-10.214844-6.125-23.363281-3.957032-31.070312 5.125-7.707032 9.082031-7.707032 22.40625 0 31.488281 7.707031 9.082031 20.855468 11.25 31.070312 5.121094 8.816406 5.285156 20 4.457031 27.941406-2.0625 7.945313-6.523438 10.933594-17.332031 7.46875-27.007813-3.460937-9.675781-12.632812-16.128906-22.910156-16.128906zm-33.332031 24.332031c-.011719-2.574219 1.171875-5.007812 3.207031-6.585937 2.03125-1.578125 4.679688-2.125 7.171875-1.480469-1.839843 5.222656-1.839843 10.914063 0 16.136719-2.492187.644531-5.140625.097656-7.171875-1.480469-2.035156-1.582031-3.21875-4.015625-3.207031-6.589844zm33.332031 8.335938c-.691406-.003907-1.378906-.09375-2.046875-.265625 1.839844-5.222656 1.839844-10.914063 0-16.136719 3.125-.796875 6.429688.28125 8.484375 2.769531 2.050782 2.492188 2.480469 5.941406 1.105469 8.859375-1.378906 2.914063-4.316406 4.773438-7.542969 4.769531zm0 0"/></svg>